<?xml version="1.0" encoding="UTF-8"?>
<svg id="Layer_2" data-name="Layer 2" xmlns="http://www.w3.org/2000/svg" xmlns:xlink="http://www.w3.org/1999/xlink" viewBox="0 0 761.54 179.69">
  <defs>
    <style>
      .cls-1 {
        fill: url(#linear-gradient-2);
      }

      .cls-2 {
        fill: url(#linear-gradient);
      }
    </style>
    <linearGradient id="linear-gradient" x1="172.24" y1="-12.29" x2="-36.13" y2="184" gradientTransform="translate(9.28 12.17)" gradientUnits="userSpaceOnUse">
      <stop offset="0" stop-color="#0060ff"/>
      <stop offset="1" stop-color="#00ffbd"/>
    </linearGradient>
    <linearGradient id="linear-gradient-2" x1="191.63" y1="-34.93" x2="95.09" y2="202.01" gradientTransform="translate(9.28 12.17)" gradientUnits="userSpaceOnUse">
      <stop offset="0" stop-color="#0060ff"/>
      <stop offset="1" stop-color="#00ffbd"/>
    </linearGradient>
  </defs>
  <g id="Layer_1-2" data-name="Layer 1">
    <g>
      <g>
        <path d="M269.19,80.01c-9.16,0-16.44-2.65-21.86-7.96-5.42-5.31-8.13-13.05-8.13-23.24v-17.58c0-10.18,2.71-17.92,8.13-23.24C252.75,2.69,260.04.04,269.19.04s16.06,2.53,20.93,7.58c4.87,5.05,7.31,11.97,7.31,20.76v.55h-9.12v-.88c0-5.78-1.56-10.53-4.67-14.23-3.11-3.7-7.93-5.55-14.45-5.55s-11.61,2-15.27,5.99c-3.66,3.99-5.49,9.58-5.49,16.75v18.02c0,7.18,1.83,12.76,5.49,16.75,3.66,3.99,8.75,5.99,15.27,5.99s11.33-1.85,14.45-5.55c3.11-3.7,4.67-8.44,4.67-14.23v-1.76h9.12v1.43c0,8.79-2.44,15.71-7.31,20.76-4.87,5.05-11.85,7.58-20.93,7.58Z"/>
        <path d="M344.55,80.01c-9.16,0-16.46-2.65-21.92-7.96-5.46-5.31-8.19-13.05-8.19-23.24v-17.58c0-10.18,2.73-17.92,8.19-23.24,5.46-5.31,12.76-7.96,21.92-7.96s16.57,2.66,22.03,7.96c5.45,5.31,8.18,13.06,8.18,23.24v17.58c0,10.18-2.73,17.93-8.18,23.24-5.46,5.31-12.8,7.96-22.03,7.96ZM344.55,71.77c6.66,0,11.83-1.99,15.49-5.99,3.66-3.99,5.49-9.54,5.49-16.64v-18.24c0-7.1-1.83-12.65-5.49-16.64-3.66-3.99-8.83-5.99-15.49-5.99s-11.72,2-15.38,5.99c-3.66,3.99-5.49,9.54-5.49,16.64v18.24c0,7.1,1.83,12.65,5.49,16.64,3.66,3.99,8.79,5.99,15.38,5.99Z"/>
        <path d="M394.87,78.48V1.57h17.58l20.43,71.08h1.43L454.74,1.57h17.58v76.9h-8.9V7.62h-1.54l-20.32,70.86h-15.93l-20.32-70.86h-1.54v70.86h-8.9Z"/>
        <path d="M494.62,78.48V1.57h29.44c4.61,0,8.73.9,12.36,2.69,3.62,1.8,6.5,4.34,8.62,7.64,2.12,3.3,3.19,7.29,3.19,11.97v1.43c0,4.61-1.08,8.59-3.24,11.92-2.16,3.33-5.07,5.88-8.73,7.64-3.66,1.76-7.73,2.64-12.19,2.64h-20.21v30.98h-9.23ZM503.85,39.15h19.23c4.91,0,8.79-1.23,11.65-3.68,2.86-2.45,4.28-5.91,4.28-10.38v-1.1c0-4.47-1.41-7.93-4.23-10.38-2.82-2.45-6.72-3.68-11.7-3.68h-19.23v29.22Z"/>
        <path d="M554.32,78.48L578.05,1.57h16.26l23.73,76.9h-9.56l-5.93-19.44h-32.74l-5.93,19.44h-9.56ZM572.12,50.68h28.01l-13.18-43.5h-1.54l-13.29,43.5Z"/>
        <path d="M661.9,80.01c-5.57,0-10.55-.99-14.94-2.97-4.39-1.98-7.85-4.96-10.38-8.95-2.53-3.99-3.79-8.99-3.79-15v-2.31h9.12v2.31c0,6.37,1.87,11.11,5.6,14.23,3.74,3.11,8.53,4.67,14.39,4.67s10.58-1.35,13.73-4.07c3.15-2.71,4.72-6.11,4.72-10.22,0-2.86-.71-5.13-2.14-6.81-1.43-1.68-3.42-3.06-5.99-4.12-2.56-1.06-5.57-1.99-9.01-2.8l-5.71-1.43c-4.47-1.17-8.42-2.6-11.86-4.28-3.44-1.68-6.14-3.9-8.07-6.65-1.94-2.75-2.91-6.28-2.91-10.6s1.08-8.06,3.24-11.21c2.16-3.15,5.2-5.56,9.12-7.25,3.92-1.68,8.44-2.53,13.57-2.53s9.87.9,14.01,2.69c4.14,1.8,7.4,4.43,9.78,7.91,2.38,3.48,3.57,7.85,3.57,13.13v4.61h-9.12v-4.61c0-3.74-.79-6.74-2.36-9.01-1.58-2.27-3.74-3.95-6.48-5.05-2.75-1.1-5.88-1.65-9.39-1.65-5.05,0-9.12,1.12-12.19,3.35-3.08,2.23-4.61,5.4-4.61,9.5,0,2.71.66,4.91,1.98,6.59,1.32,1.69,3.19,3.06,5.6,4.12,2.42,1.06,5.31,2,8.68,2.8l5.71,1.43c4.47.95,8.48,2.25,12.03,3.9,3.55,1.65,6.39,3.88,8.51,6.7,2.12,2.82,3.19,6.5,3.19,11.04s-1.14,8.5-3.41,11.86c-2.27,3.37-5.48,5.99-9.61,7.85-4.14,1.87-8.99,2.8-14.56,2.8Z"/>
        <path d="M733.96,80.01c-5.57,0-10.55-.99-14.94-2.97-4.39-1.98-7.85-4.96-10.38-8.95-2.53-3.99-3.79-8.99-3.79-15v-2.31h9.12v2.31c0,6.37,1.87,11.11,5.6,14.23,3.74,3.11,8.53,4.67,14.39,4.67s10.58-1.35,13.73-4.07c3.15-2.71,4.72-6.11,4.72-10.22,0-2.86-.71-5.13-2.14-6.81-1.43-1.68-3.42-3.06-5.99-4.12-2.56-1.06-5.57-1.99-9.01-2.8l-5.71-1.43c-4.47-1.17-8.42-2.6-11.86-4.28-3.44-1.68-6.14-3.9-8.07-6.65-1.94-2.75-2.91-6.28-2.91-10.6s1.08-8.06,3.24-11.21c2.16-3.15,5.2-5.56,9.12-7.25,3.92-1.68,8.44-2.53,13.57-2.53s9.87.9,14.01,2.69c4.14,1.8,7.4,4.43,9.78,7.91,2.38,3.48,3.57,7.85,3.57,13.13v4.61h-9.12v-4.61c0-3.74-.79-6.74-2.36-9.01-1.58-2.27-3.74-3.95-6.48-5.05-2.75-1.1-5.88-1.65-9.39-1.65-5.05,0-9.12,1.12-12.19,3.35-3.08,2.23-4.61,5.4-4.61,9.5,0,2.71.66,4.91,1.98,6.59,1.32,1.69,3.19,3.06,5.6,4.12,2.42,1.06,5.31,2,8.68,2.8l5.71,1.43c4.47.95,8.48,2.25,12.03,3.9,3.55,1.65,6.39,3.88,8.51,6.7,2.12,2.82,3.19,6.5,3.19,11.04s-1.14,8.5-3.41,11.86c-2.27,3.37-5.48,5.99-9.61,7.85-4.14,1.87-8.99,2.8-14.56,2.8Z"/>
      </g>
      <g>
        <path d="M241.61,178.15v-76.9h17.58l20.43,71.08h1.43l20.43-71.08h17.58v76.9h-8.9v-70.86h-1.54l-20.32,70.86h-15.93l-20.32-70.86h-1.54v70.86h-8.9Z"/>
        <path d="M341.36,178.15v-76.9h9.23v76.9h-9.23Z"/>
        <path d="M372.88,178.15v-76.9h17.91l26.8,71.08h1.43v-71.08h9.12v76.9h-17.91l-26.7-71.19h-1.54v71.19h-9.12Z"/>
        <path d="M450.55,178.15v-76.9h9.23v76.9h-9.23Z"/>
        <path d="M482.08,178.15v-76.9h17.91l26.81,71.08h1.43v-71.08h9.12v76.9h-17.91l-26.7-71.19h-1.54v71.19h-9.12Z"/>
        <path d="M583.55,179.69c-5.71,0-10.75-1.19-15.11-3.57-4.36-2.38-7.76-5.88-10.22-10.49-2.45-4.61-3.68-10.33-3.68-17.14v-17.58c0-10.18,2.71-17.92,8.13-23.24,5.42-5.31,12.71-7.96,21.86-7.96s16,2.49,20.76,7.47c4.76,4.98,7.14,11.65,7.14,19.99v.55h-9.12v-.77c0-3.66-.66-6.92-1.98-9.78-1.32-2.86-3.37-5.11-6.15-6.76-2.78-1.65-6.34-2.47-10.66-2.47-6.52,0-11.61,2-15.27,5.99-3.66,3.99-5.49,9.58-5.49,16.75v18.02c0,7.18,1.83,12.76,5.49,16.75,3.66,3.99,8.79,5.99,15.38,5.99s11.19-1.83,14.23-5.49c3.04-3.66,4.56-8.53,4.56-14.61v-1.87h-23.29v-7.91h32.3v36.58h-8.35v-8.35h-1.54c-.81,1.61-1.94,3.19-3.41,4.72-1.47,1.54-3.44,2.78-5.93,3.73-2.49.95-5.71,1.43-9.67,1.43Z"/>
      </g>
    </g>
    <g>
      <path class="cls-2" d="M67.68,149.88h70.05c.38,0,.63.42.43.75l-15.74,27.27c-.09.15-.25.25-.43.25H51.64c-.18,0-.34-.1-.43-.25L.07,89.65c-.09-.15-.09-.34,0-.5L51.23.25c.09-.16.25-.25.43-.25h98.41c.38,0,.63.42.44.75l-15.67,27.43c-.09.16-.25.25-.43.25h-66.43c-.18,0-.34.1-.43.25l-34.9,60.33c-.09.15-.09.35,0,.5l34.6,60.12c.09.16.25.25.43.25Z"/>
      <path class="cls-1" d="M148.17,102.12l4.07,7.04c.19.33.67.33.87,0l34.09-59.06c.19-.33.67-.33.87,0l13.23,22.92c.09.16.09.35,0,.5l-55.58,96.05c-.19.33.04.75.42.75l7.64.13c.18,0,.35-.09.44-.25l51.47-88.07c.19-.33.67-.33.86,0l3.86,6.68c.09.15.09.35,0,.5l-51.14,88.58c-.09.15-.25.25-.43.25h-26.76c-.39,0-.63-.42-.43-.75l60.62-103.96c.09-.15.09-.35,0-.5l-4.25-7.36c-.19-.33-.67-.33-.87,0l-33.98,59.04c-.19.33-.67.33-.87,0l-13.17-22.8c-.09-.15-.09-.34,0-.5l34.55-60.04c.09-.15.09-.34,0-.5l-4.1-7.11c-.19-.33-.67-.33-.87,0l-62.64,107.92c-.09.15-.25.25-.43.25h-26.27c-.39,0-.63-.42-.43-.75L159.46,2.06c.19-.33.67-.33.87,0l3.91,6.77c.09.15.09.35,0,.5l-71.78,123.85c-.19.33.05.75.43.75h8.42c.18,0,.34-.09.43-.25L168.73,18.12c.19-.33.67-.33.87,0l13.08,22.65c.09.15.09.34,0,.5l-34.5,60.35c-.09.15-.09.34,0,.5Z"/>
    </g>
  </g>
</svg>