<?xml version="1.0" encoding="UTF-8"?>
<svg id="Layer_2" data-name="Layer 2" xmlns="http://www.w3.org/2000/svg" xmlns:xlink="http://www.w3.org/1999/xlink" viewBox="0 0 1104.8 135.6">
  <defs>
    <style>
      .cls-1 {
        fill: url(#linear-gradient-2);
      }

      .cls-2 {
        fill: url(#linear-gradient);
      }
    </style>
    <linearGradient id="linear-gradient" x1="128.88" y1="-12.26" x2="-29.72" y2="137.15" gradientTransform="translate(9.28 12.17)" gradientUnits="userSpaceOnUse">
      <stop offset="0" stop-color="#0060ff"/>
      <stop offset="1" stop-color="#00ffbd"/>
    </linearGradient>
    <linearGradient id="linear-gradient-2" x1="143.64" y1="-29.5" x2="70.17" y2="150.86" gradientTransform="translate(9.28 12.17)" gradientUnits="userSpaceOnUse">
      <stop offset="0" stop-color="#0060ff"/>
      <stop offset="1" stop-color="#00ffbd"/>
    </linearGradient>
  </defs>
  <g id="Layer_1-2" data-name="Layer 1">
    <g>
      <g>
        <path d="M217.9,106.94c-8.98,0-16.13-2.6-21.44-7.81-5.32-5.21-7.97-12.8-7.97-22.79v-17.24c0-9.98,2.66-17.58,7.97-22.79,5.31-5.21,12.46-7.81,21.44-7.81s15.75,2.48,20.53,7.43c4.78,4.96,7.17,11.74,7.17,20.36v.54h-8.94v-.86c0-5.67-1.53-10.32-4.58-13.95-3.05-3.63-7.78-5.44-14.17-5.44s-11.39,1.96-14.98,5.87c-3.59,3.92-5.39,9.39-5.39,16.43v17.67c0,7.04,1.79,12.52,5.39,16.43,3.59,3.92,8.58,5.87,14.98,5.87s11.11-1.81,14.17-5.44c3.05-3.63,4.58-8.28,4.58-13.95v-1.72h8.94v1.4c0,8.62-2.39,15.41-7.17,20.36-4.78,4.96-11.62,7.43-20.53,7.43Z"/>
        <path d="M291.81,106.94c-8.98,0-16.14-2.6-21.5-7.81-5.35-5.21-8.03-12.8-8.03-22.79v-17.24c0-9.98,2.68-17.58,8.03-22.79,5.35-5.21,12.52-7.81,21.5-7.81s16.25,2.6,21.6,7.81c5.35,5.21,8.03,12.8,8.03,22.79v17.24c0,9.99-2.68,17.58-8.03,22.79-5.35,5.21-12.55,7.81-21.6,7.81ZM291.81,98.86c6.54,0,11.6-1.96,15.19-5.87,3.59-3.91,5.39-9.36,5.39-16.32v-17.89c0-6.97-1.8-12.41-5.39-16.32-3.59-3.91-8.66-5.87-15.19-5.87s-11.49,1.96-15.09,5.87c-3.59,3.92-5.39,9.36-5.39,16.32v17.89c0,6.97,1.8,12.41,5.39,16.32,3.59,3.92,8.62,5.87,15.09,5.87Z"/>
        <path d="M341.16,105.43V30.01h17.24l20.04,69.71h1.4l20.04-69.71h17.24v75.42h-8.73V35.94h-1.51l-19.93,69.5h-15.62l-19.93-69.5h-1.51v69.5h-8.73Z"/>
        <path d="M438.99,105.43V30.01h28.87c4.53,0,8.57.88,12.12,2.64,3.56,1.76,6.37,4.26,8.46,7.49,2.08,3.23,3.12,7.15,3.12,11.74v1.4c0,4.53-1.06,8.42-3.18,11.69-2.12,3.27-4.97,5.76-8.57,7.49-3.59,1.72-7.58,2.59-11.96,2.59h-19.82v30.38h-9.05ZM448.04,66.86h18.86c4.81,0,8.62-1.2,11.42-3.61,2.8-2.41,4.2-5.8,4.2-10.18v-1.08c0-4.38-1.38-7.77-4.15-10.18-2.77-2.41-6.59-3.61-11.48-3.61h-18.86v28.66Z"/>
        <path d="M497.54,105.43l23.27-75.42h15.95l23.27,75.42h-9.37l-5.82-19.07h-32.11l-5.82,19.07h-9.37ZM515,78.17h27.48l-12.93-42.67h-1.51l-13.04,42.67Z"/>
        <path d="M603.05,106.94c-5.46,0-10.34-.97-14.65-2.91-4.31-1.94-7.7-4.87-10.18-8.78-2.48-3.91-3.72-8.82-3.72-14.71v-2.26h8.94v2.26c0,6.25,1.83,10.9,5.49,13.95,3.66,3.05,8.37,4.58,14.11,4.58s10.38-1.33,13.47-3.99c3.09-2.66,4.63-6,4.63-10.02,0-2.8-.7-5.03-2.1-6.68-1.4-1.65-3.36-3-5.87-4.04-2.51-1.04-5.46-1.96-8.84-2.75l-5.6-1.4c-4.38-1.15-8.26-2.55-11.64-4.2-3.38-1.65-6.02-3.82-7.92-6.52-1.9-2.69-2.86-6.16-2.86-10.4s1.06-7.9,3.18-10.99c2.12-3.09,5.1-5.46,8.94-7.11,3.84-1.65,8.28-2.48,13.31-2.48s9.68.88,13.74,2.64c4.06,1.76,7.25,4.35,9.59,7.76,2.33,3.41,3.5,7.7,3.5,12.88v4.52h-8.94v-4.52c0-3.66-.77-6.61-2.32-8.84-1.55-2.23-3.66-3.88-6.36-4.96-2.69-1.08-5.76-1.62-9.21-1.62-4.96,0-8.94,1.1-11.96,3.29-3.02,2.19-4.52,5.3-4.52,9.32,0,2.66.65,4.81,1.94,6.47,1.29,1.65,3.13,3,5.5,4.04,2.37,1.04,5.21,1.96,8.51,2.75l5.6,1.4c4.38.93,8.31,2.21,11.8,3.83,3.48,1.62,6.27,3.81,8.35,6.57,2.08,2.77,3.12,6.38,3.12,10.83s-1.11,8.33-3.34,11.64c-2.23,3.3-5.37,5.87-9.43,7.7-4.06,1.83-8.82,2.75-14.28,2.75Z"/>
        <path d="M673.73,106.94c-5.46,0-10.34-.97-14.65-2.91-4.31-1.94-7.7-4.87-10.18-8.78-2.48-3.91-3.72-8.82-3.72-14.71v-2.26h8.94v2.26c0,6.25,1.83,10.9,5.49,13.95,3.66,3.05,8.37,4.58,14.11,4.58s10.38-1.33,13.47-3.99c3.09-2.66,4.63-6,4.63-10.02,0-2.8-.7-5.03-2.1-6.68-1.4-1.65-3.36-3-5.87-4.04-2.51-1.04-5.46-1.96-8.84-2.75l-5.6-1.4c-4.38-1.15-8.26-2.55-11.64-4.2-3.38-1.65-6.02-3.82-7.92-6.52-1.9-2.69-2.86-6.16-2.86-10.4s1.06-7.9,3.18-10.99c2.12-3.09,5.1-5.46,8.94-7.11,3.84-1.65,8.28-2.48,13.31-2.48s9.68.88,13.74,2.64c4.06,1.76,7.25,4.35,9.59,7.76,2.33,3.41,3.5,7.7,3.5,12.88v4.52h-8.94v-4.52c0-3.66-.77-6.61-2.32-8.84-1.55-2.23-3.66-3.88-6.36-4.96-2.69-1.08-5.76-1.62-9.21-1.62-4.96,0-8.94,1.1-11.96,3.29-3.02,2.19-4.52,5.3-4.52,9.32,0,2.66.65,4.81,1.94,6.47,1.29,1.65,3.13,3,5.5,4.04,2.37,1.04,5.21,1.96,8.51,2.75l5.6,1.4c4.38.93,8.31,2.21,11.8,3.83,3.48,1.62,6.27,3.81,8.35,6.57,2.08,2.77,3.12,6.38,3.12,10.83s-1.11,8.33-3.34,11.64c-2.23,3.3-5.37,5.87-9.43,7.7-4.06,1.83-8.82,2.75-14.28,2.75Z"/>
      </g>
      <g>
        <path d="M741.1,105.43V30.01h17.24l20.04,69.71h1.4l20.04-69.71h17.24v75.42h-8.73V35.94h-1.51l-19.93,69.5h-15.62l-19.93-69.5h-1.51v69.5h-8.73Z"/>
        <path d="M838.93,105.43V30.01h9.05v75.42h-9.05Z"/>
        <path d="M869.85,105.43V30.01h17.56l26.29,69.71h1.4V30.01h8.94v75.42h-17.56l-26.18-69.82h-1.51v69.82h-8.94Z"/>
        <path d="M946.02,105.43V30.01h9.05v75.42h-9.05Z"/>
        <path d="M976.94,105.43V30.01h17.56l26.29,69.71h1.4V30.01h8.94v75.42h-17.56l-26.18-69.82h-1.51v69.82h-8.94Z"/>
        <path d="M1076.47,106.94c-5.6,0-10.54-1.17-14.81-3.5-4.27-2.33-7.61-5.76-10.02-10.29-2.41-4.53-3.61-10.13-3.61-16.81v-17.24c0-9.98,2.66-17.58,7.97-22.79,5.31-5.21,12.46-7.81,21.44-7.81s15.69,2.44,20.36,7.33c4.67,4.89,7,11.42,7,19.61v.54h-8.94v-.75c0-3.59-.65-6.79-1.94-9.59-1.29-2.8-3.31-5.01-6.03-6.63-2.73-1.62-6.21-2.42-10.45-2.42-6.39,0-11.39,1.96-14.98,5.87-3.59,3.92-5.39,9.39-5.39,16.43v17.67c0,7.04,1.8,12.52,5.39,16.43,3.59,3.92,8.62,5.87,15.08,5.87s10.97-1.79,13.95-5.39c2.98-3.59,4.47-8.37,4.47-14.33v-1.83h-22.84v-7.76h31.68v35.88h-8.19v-8.19h-1.51c-.79,1.58-1.9,3.12-3.34,4.63-1.44,1.51-3.38,2.73-5.82,3.66-2.44.93-5.6,1.4-9.48,1.4Z"/>
      </g>
      <g>
        <path class="cls-2" d="M51.52,114.09h53.32c.29,0,.48.32.33.57l-11.98,20.76c-.07.12-.19.19-.33.19h-53.55c-.14,0-.26-.07-.33-.19L.05,68.24c-.07-.12-.07-.26,0-.38L38.99.19c.07-.12.19-.19.33-.19h74.91c.29,0,.48.32.33.57l-11.92,20.88c-.07.12-.19.19-.33.19h-50.56c-.14,0-.26.07-.33.19l-26.57,45.92c-.07.12-.07.26,0,.38l26.34,45.76c.07.12.19.19.33.19Z"/>
        <path class="cls-1" d="M112.78,77.73l3.1,5.36c.15.25.51.25.66,0l25.95-44.95c.15-.25.51-.25.66,0l10.07,17.45c.07.12.07.26,0,.38l-42.3,73.11c-.15.25.03.57.32.57l5.82.1c.14,0,.27-.07.33-.19l39.18-67.04c.15-.25.51-.25.66,0l2.94,5.09c.07.12.07.26,0,.38l-38.93,67.42c-.07.12-.19.19-.33.19h-20.37c-.29,0-.48-.32-.33-.57l46.14-79.13c.07-.12.07-.26,0-.38l-3.23-5.6c-.15-.25-.51-.25-.66,0l-25.86,44.94c-.15.25-.51.25-.66,0l-10.02-17.36c-.07-.12-.07-.26,0-.38l26.3-45.7c.07-.12.07-.26,0-.38l-3.12-5.41c-.15-.25-.51-.25-.66,0l-47.68,82.14c-.07.12-.19.19-.33.19h-19.99c-.29,0-.48-.32-.33-.57L121.37,1.57c.15-.25.51-.25.66,0l2.97,5.15c.07.12.07.26,0,.38l-54.64,94.27c-.15.25.04.57.33.57h6.41c.14,0,.26-.07.33-.19L128.43,13.8c.15-.25.51-.25.66,0l9.95,17.24c.07.12.07.26,0,.38l-26.26,45.94c-.07.12-.07.26,0,.38Z"/>
      </g>
    </g>
  </g>
</svg>